<svg width="116" height="29" viewBox="0 0 116 29" fill="none" xmlns="http://www.w3.org/2000/svg">
<path id="MyLogo" d="M0.896307 0.181818H6.58523L12.5938 14.8409H12.8494L18.858 0.181818H24.5469V22H20.0724V7.79901H19.8913L14.245 21.8935H11.1982L5.55185 7.74574H5.37074V22H0.896307V0.181818ZM31.0641 28.1364C30.4888 28.1364 29.949 28.0902 29.4448 27.9979C28.9476 27.9126 28.5357 27.8026 28.209 27.6676L29.2317 24.2798C29.7644 24.4432 30.2438 24.532 30.6699 24.5462C31.1032 24.5604 31.476 24.4609 31.7885 24.2479C32.1081 24.0348 32.3674 23.6726 32.5662 23.1612L32.8326 22.4688L26.9625 5.63636H31.7353L35.123 17.6534H35.2935L38.7132 5.63636H43.5179L37.1578 23.7685C36.8525 24.6491 36.437 25.4162 35.9114 26.0696C35.3929 26.7301 34.736 27.2379 33.9405 27.593C33.1451 27.9553 32.1863 28.1364 31.0641 28.1364ZM45.9256 22V0.181818H50.5385V18.1967H59.8922V22H45.9256ZM70.2553 22.3196C68.6005 22.3196 67.1694 21.968 65.962 21.2649C64.7617 20.5547 63.8349 19.5675 63.1815 18.3033C62.5281 17.032 62.2013 15.5582 62.2013 13.8821C62.2013 12.1918 62.5281 10.7145 63.1815 9.45028C63.8349 8.17898 64.7617 7.19176 65.962 6.48864C67.1694 5.77841 68.6005 5.4233 70.2553 5.4233C71.9102 5.4233 73.3377 5.77841 74.538 6.48864C75.7454 7.19176 76.6758 8.17898 77.3292 9.45028C77.9826 10.7145 78.3093 12.1918 78.3093 13.8821C78.3093 15.5582 77.9826 17.032 77.3292 18.3033C76.6758 19.5675 75.7454 20.5547 74.538 21.2649C73.3377 21.968 71.9102 22.3196 70.2553 22.3196ZM70.2766 18.804C71.0295 18.804 71.658 18.5909 72.1623 18.1648C72.6665 17.7315 73.0465 17.142 73.3022 16.3963C73.565 15.6506 73.6964 14.8018 73.6964 13.8501C73.6964 12.8984 73.565 12.0497 73.3022 11.304C73.0465 10.5582 72.6665 9.96875 72.1623 9.53551C71.658 9.10227 71.0295 8.88565 70.2766 8.88565C69.5167 8.88565 68.8775 9.10227 68.359 9.53551C67.8477 9.96875 67.4606 10.5582 67.1978 11.304C66.9421 12.0497 66.8143 12.8984 66.8143 13.8501C66.8143 14.8018 66.9421 15.6506 67.1978 16.3963C67.4606 17.142 67.8477 17.7315 68.359 18.1648C68.8775 18.5909 69.5167 18.804 70.2766 18.804ZM88.6325 28.4773C87.1623 28.4773 85.9016 28.2749 84.8505 27.87C83.8065 27.4723 82.9755 26.929 82.3576 26.2401C81.7397 25.5511 81.3384 24.777 81.1538 23.9176L85.3512 23.353C85.479 23.6797 85.6815 23.9851 85.9585 24.2692C86.2354 24.5533 86.6012 24.7805 87.0558 24.951C87.5174 25.1286 88.0785 25.2173 88.739 25.2173C89.7262 25.2173 90.5394 24.9759 91.1786 24.4929C91.8249 24.017 92.1481 23.218 92.1481 22.0959V19.1023H91.9563C91.7575 19.5568 91.4592 19.9865 91.0614 20.3913C90.6637 20.7962 90.1523 21.1264 89.5273 21.3821C88.9023 21.6378 88.1566 21.7656 87.2901 21.7656C86.0614 21.7656 84.9428 21.4815 83.9343 20.9134C82.9329 20.3381 82.1339 19.4609 81.5373 18.282C80.9478 17.0959 80.6531 15.5973 80.6531 13.7862C80.6531 11.9325 80.9549 10.3842 81.5586 9.14133C82.1623 7.89844 82.9648 6.96804 83.9663 6.35014C84.9748 5.73224 86.0792 5.4233 87.2795 5.4233C88.1957 5.4233 88.9627 5.57955 89.5806 5.89205C90.1985 6.19744 90.6957 6.58097 91.0721 7.04261C91.4556 7.49716 91.7504 7.9446 91.9563 8.38494H92.1268V5.63636H96.6332V22.1598C96.6332 23.5518 96.2923 24.7166 95.6104 25.6541C94.9286 26.5916 93.984 27.2947 92.7766 27.7635C91.5763 28.2393 90.195 28.4773 88.6325 28.4773ZM88.7283 18.3565C89.4599 18.3565 90.0778 18.1754 90.582 17.8132C91.0934 17.4439 91.484 16.9183 91.7539 16.2365C92.0309 15.5476 92.1694 14.7237 92.1694 13.7649C92.1694 12.8061 92.0344 11.9751 91.7646 11.272C91.4947 10.5618 91.104 10.0114 90.5927 9.62074C90.0813 9.23011 89.4599 9.0348 88.7283 9.0348C87.9826 9.0348 87.354 9.23722 86.8427 9.64204C86.3313 10.0398 85.9442 10.5937 85.6815 11.304C85.4187 12.0142 85.2873 12.8345 85.2873 13.7649C85.2873 14.7095 85.4187 15.5263 85.6815 16.2152C85.9513 16.897 86.3384 17.4261 86.8427 17.8026C87.354 18.1719 87.9826 18.3565 88.7283 18.3565ZM107.638 22.3196C105.983 22.3196 104.552 21.968 103.345 21.2649C102.145 20.5547 101.218 19.5675 100.564 18.3033C99.9109 17.032 99.5842 15.5582 99.5842 13.8821C99.5842 12.1918 99.9109 10.7145 100.564 9.45028C101.218 8.17898 102.145 7.19176 103.345 6.48864C104.552 5.77841 105.983 5.4233 107.638 5.4233C109.293 5.4233 110.721 5.77841 111.921 6.48864C113.128 7.19176 114.059 8.17898 114.712 9.45028C115.365 10.7145 115.692 12.1918 115.692 13.8821C115.692 15.5582 115.365 17.032 114.712 18.3033C114.059 19.5675 113.128 20.5547 111.921 21.2649C110.721 21.968 109.293 22.3196 107.638 22.3196ZM107.659 18.804C108.412 18.804 109.041 18.5909 109.545 18.1648C110.049 17.7315 110.429 17.142 110.685 16.3963C110.948 15.6506 111.079 14.8018 111.079 13.8501C111.079 12.8984 110.948 12.0497 110.685 11.304C110.429 10.5582 110.049 9.96875 109.545 9.53551C109.041 9.10227 108.412 8.88565 107.659 8.88565C106.9 8.88565 106.26 9.10227 105.742 9.53551C105.23 9.96875 104.843 10.5582 104.581 11.304C104.325 12.0497 104.197 12.8984 104.197 13.8501C104.197 14.8018 104.325 15.6506 104.581 16.3963C104.843 17.142 105.23 17.7315 105.742 18.1648C106.26 18.5909 106.9 18.804 107.659 18.804Z" fill="url(#paint0_linear_1_5)"/>
<defs>
<linearGradient id="paint0_linear_1_5" x1="-1" y1="11" x2="119" y2="11" gradientUnits="userSpaceOnUse">
<stop stop-color="#0093EF"/>
<stop offset="1" stop-color="#CE3AFF"/>
</linearGradient>
</defs>
</svg>
